<svg width="860" height="250" viewBox="0 0 860 250" fill="none" xmlns="http://www.w3.org/2000/svg">
  <g fill="#FFFFFF">
    <path d="M53 43H144C192 43 214 69 206 123C196 191 153 212 106 212H15L53 43ZM91 78L66 176H106C128 176 146 165 152 135C158 102 151 78 121 78H91Z"/>
    <path d="M225 43H276L253 172C243 223 205 239 153 239H112L119 215H146C172 215 191 204 197 175L225 43Z"/>
    <path d="M285 43H336L313 172C303 223 265 239 213 239H172L179 215H206C232 215 251 204 257 175L285 43Z"/>
    <path d="M345 112H388L377 164C374 180 379 188 392 188C407 188 417 180 420 164L431 112H474L460 181C454 212 429 229 392 229C368 229 354 220 347 205L343 224H303L345 112Z"/>
    <path d="M500 69H543L529 126L571 112H624L563 165L601 224H551L520 180L514 224H471L500 69Z"/>
    <path d="M664 109C712 109 738 135 738 171C738 201 716 229 668 229H639C594 229 567 206 567 170C567 133 594 109 644 109H664ZM646 144C624 144 611 155 611 172C611 187 620 195 640 195H663C685 195 694 184 694 167C694 153 685 144 664 144H646Z"/>
    <path d="M763 112H811L790 145L818 186L780 224H729L769 180L739 140L763 112Z"/>
  </g>
</svg>
